# xmcd
#
# Track frame offsets:
#	150
#	14002
#	32325
#	52400
#	63605
#	87665
#	119315
#	132390
#	151130
#	175360
#	193855
#
# Disc length: 2928 seconds
#
# Revision: 1
# Processed by: cddbd v1.4PL0 Copyright (c) Steve Scherf et al.
# Submitted via: audiograbber 1.81.03
#
DISCID=a10b6e0b
DTITLE=Last Call - Call Of The Wild
DYEAR=1996
DGENRE=Blues
TTITLE0=Don't Treat Me Wrong
TTITLE1=Only You
TTITLE2=Back To New Orleans
TTITLE3=Cajun Queen
TTITLE4=Shape Up Or Leave Me
TTITLE5=So Funny
TTITLE6=A House Called My Home
TTITLE7=Mardi Gras
TTITLE8=Fool For Your Lovin'
TTITLE9=My My My
TTITLE10=Let's Get Back To Bed (-rock)
EXTD=
EXTT0=
EXTT1=
EXTT2=
EXTT3=
EXTT4=
EXTT5=
EXTT6=
EXTT7=
EXTT8=
EXTT9=
EXTT10=
PLAYORDER=
